<svg width="32" height="32" viewBox="0 0 32 32" fill="none" xmlns="http://www.w3.org/2000/svg">
<g clip-path="url(#clip0_241_226)">
<path d="M24 2.66675C24.3266 2.66679 24.6418 2.78669 24.8858 3.0037C25.1299 3.22071 25.2858 3.51975 25.324 3.84408L25.3333 4.00008V9.33341C25.3333 9.65999 25.2134 9.9752 24.9964 10.2192C24.7794 10.4633 24.4803 10.6192 24.156 10.6574L24 10.6667H20V12.0001H24C24.1898 12.0002 24.3774 12.0407 24.5503 12.1192C24.7231 12.1976 24.8772 12.312 25.0023 12.4547C25.1274 12.5975 25.2206 12.7653 25.2756 12.9469C25.3306 13.1286 25.3462 13.3199 25.3213 13.5081L25.2947 13.6574L23.9613 18.9907C23.8952 19.2541 23.7502 19.4909 23.5457 19.6697C23.3413 19.8484 23.0872 19.9604 22.8173 19.9907L22.6667 20.0001H20V28.0001C20 28.3267 19.8801 28.6419 19.663 28.8859C19.446 29.13 19.147 29.2859 18.8227 29.3241L18.6667 29.3334H13.3333C13.0068 29.3334 12.6916 29.2135 12.4475 28.9965C12.2035 28.7794 12.0475 28.4804 12.0093 28.1561L12 28.0001V20.0001H9.33333C9.00676 20 8.69155 19.8801 8.4475 19.6631C8.20346 19.4461 8.04754 19.1471 8.00933 18.8227L8 18.6667V13.3334C8.00004 13.0068 8.11994 12.6916 8.33695 12.4476C8.55397 12.2035 8.853 12.0476 9.17733 12.0094L9.33333 12.0001H12V10.6667C11.9999 8.59691 12.8021 6.6076 14.238 5.11679C15.6738 3.62597 17.6316 2.7497 19.7 2.67208L20 2.66675H24Z" fill="#B3B3B3"/>
</g>
<defs>
<clipPath id="clip0_241_226">
<rect width="32" height="32" fill="white"/>
</clipPath>
</defs>
</svg>
