<svg width="34" height="34" viewBox="0 0 34 34" fill="none" xmlns="http://www.w3.org/2000/svg">
<path d="M17.2598 30.1536C16.7896 30.0468 16.5977 29.9448 16.3244 29.6565C15.9381 29.25 15.88 29.0804 15.8833 28.3696C15.8857 27.6432 16.0181 27.1796 16.4912 26.2237L16.7623 25.6761H17.6786C18.5157 25.6783 18.6365 25.6518 19.0774 25.5158C19.8018 25.2729 20.5426 24.7593 20.944 24.2206L21.1215 23.9826L21.6075 24.4766C22.1253 25.0031 22.5938 25.3023 23.2698 25.5381C23.8106 25.7276 25.0614 25.73 25.7511 25.5381C27.3315 25.1114 28.4449 23.8641 28.8452 22.0718C28.8913 21.8654 29.1272 20.0068 29.3692 17.9428C29.611 15.8787 29.8164 14.1972 29.8253 14.2062C29.8814 14.262 30.5551 16.8244 30.7782 17.8308C31.8493 22.6615 31.8359 25.95 30.7372 27.8703C30.2876 28.6559 29.4092 29.2835 28.4876 29.4768C27.8914 29.6031 27.5622 29.5885 27.0461 29.4209C25.7023 28.9823 24.1353 29.0552 21.2791 29.6888C19.0491 30.1837 17.966 30.3066 17.2598 30.1454L17.2598 30.1536ZM10.5639 24.9662C10.0781 24.8545 9.53521 24.6328 9.15752 24.3904L8.85288 24.1937V18.5081V12.8226L8.24282 12.7813C7.90731 12.757 7.6247 12.7473 7.61484 12.757C7.60512 12.757 7.57695 15.3189 7.55242 18.4275L7.50798 24.0798L7.28115 24.1696C6.61917 24.4346 5.07531 24.4581 4.44198 24.2133C3.46817 23.8367 2.79136 22.957 2.50964 21.7022C2.44504 21.4142 2.42853 20.2927 2.42853 16.2129L2.42865 11.0857L2.56465 10.6031C2.87062 9.51684 3.55257 8.43807 4.28204 7.88581C5.08597 7.27746 5.79839 7.07418 7.1257 7.07418H7.92157L8.2816 6.70698C8.47953 6.50541 8.79284 6.222 8.97766 6.07823C10.3223 5.03273 12.1142 4.75733 13.8787 5.32464L14.417 5.49707L14.5733 5.30521C15.0806 4.68228 15.7608 4.21551 16.5439 3.95298C16.9797 3.80727 17.114 3.79027 17.9313 3.78784C18.9493 3.78784 19.3195 3.85827 20.0541 4.20458C20.5926 4.45886 21.0681 4.78064 21.5951 5.2479L22.0015 5.60806L22.4697 5.52063C23.094 5.40163 24.8167 5.38706 25.2604 5.49634C25.7376 5.61291 26.7331 6.10858 27.1974 6.46121C27.6122 6.7762 28.0701 7.3287 28.3044 7.79717C28.6451 8.47814 28.8797 9.56493 28.8797 10.4623C28.8797 10.7627 28.5995 13.3788 28.2438 16.3994C27.5607 22.2005 27.56 22.2049 27.1188 22.9855C26.7281 23.6766 26.0522 24.1682 25.2689 24.3309C25.0867 24.3697 24.6643 24.3892 24.33 24.3746C23.79 24.3503 23.6775 24.3285 23.3219 24.1512C22.8036 23.8937 22.294 23.3852 22.0444 22.8764L21.8521 22.4842V16.633V10.7819L22.0415 10.3817L22.231 9.98167L21.7913 9.54501C21.5494 9.30458 21.3232 9.1256 21.2885 9.14721C21.162 9.22493 20.8047 9.88793 20.6673 10.2993L20.5262 10.7214L20.4954 16.5425C20.468 21.6876 20.4531 22.3926 20.3679 22.6146C20.1007 23.3085 19.6005 23.85 18.9398 24.1609C18.5801 24.3309 18.4611 24.3552 17.8881 24.3746C16.8377 24.411 15.9903 24.2046 15.5404 23.7968L15.307 23.5856V17.5304V11.475H14.6739H14.0408L14.0262 17.9144L14.0116 24.3537L13.5592 24.5796C13.3104 24.7034 12.9439 24.8477 12.7449 24.9001C12.2354 25.0337 11.031 25.0677 10.5652 24.9609L10.5639 24.9662Z" fill="#A50000"/>
</svg>
