<svg width="207" height="64" viewBox="0 0 207 64" fill="none" xmlns="http://www.w3.org/2000/svg">
<path d="M193.931 54V35.824H186.763V31.6H206.283V35.824H199.115V54H193.931Z" fill="white"/>
<path d="M177.831 54V31.6H183.015V54H177.831Z" fill="white"/>
<path d="M161.234 41.68H171.986V45.84H161.234V41.68ZM161.618 54H156.434V31.6H173.362V35.76H161.618V54Z" fill="white"/>
<path d="M132.349 54V31.6H142.045C144.05 31.6 145.778 31.9307 147.229 32.592C148.679 33.232 149.799 34.16 150.589 35.376C151.378 36.592 151.773 38.0427 151.773 39.728C151.773 41.392 151.378 42.832 150.589 44.048C149.799 45.264 148.679 46.2027 147.229 46.864C145.778 47.504 144.05 47.824 142.045 47.824H135.229L137.533 45.488V54H132.349ZM137.533 46.064L135.229 43.6H141.757C143.357 43.6 144.551 43.2587 145.341 42.576C146.13 41.8933 146.525 40.944 146.525 39.728C146.525 38.4907 146.13 37.5307 145.341 36.848C144.551 36.1653 143.357 35.824 141.757 35.824H135.229L137.533 33.36V46.064Z" fill="white"/>
<path d="M100.826 54V31.6H105.114L114.65 47.408H112.378L121.754 31.6H126.01L126.074 54H121.21L121.178 39.056H122.074L114.586 51.632H112.25L104.602 39.056H105.69V54H100.826Z" fill="white"/>
<path d="M84.5993 54.384C81.4206 54.384 78.9353 53.4987 77.1433 51.728C75.3513 49.9573 74.4553 47.4293 74.4553 44.144V31.6H79.6393V43.952C79.6393 46.0853 80.0766 47.6213 80.9513 48.56C81.8259 49.4987 83.0526 49.968 84.6313 49.968C86.2099 49.968 87.4366 49.4987 88.3113 48.56C89.1859 47.6213 89.6233 46.0853 89.6233 43.952V31.6H94.7433V44.144C94.7433 47.4293 93.8473 49.9573 92.0553 51.728C90.2633 53.4987 87.7779 54.384 84.5993 54.384Z" fill="white"/>
<path d="M50.656 54V31.6H60.352C62.3573 31.6 64.0853 31.9307 65.536 32.592C66.9867 33.232 68.1067 34.16 68.896 35.376C69.6853 36.592 70.08 38.0427 70.08 39.728C70.08 41.392 69.6853 42.832 68.896 44.048C68.1067 45.264 66.9867 46.2027 65.536 46.864C64.0853 47.504 62.3573 47.824 60.352 47.824H53.536L55.84 45.488V54H50.656ZM55.84 46.064L53.536 43.6H60.064C61.664 43.6 62.8587 43.2587 63.648 42.576C64.4373 41.8933 64.832 40.944 64.832 39.728C64.832 38.4907 64.4373 37.5307 63.648 36.848C62.8587 36.1653 61.664 35.824 60.064 35.824H53.536L55.84 33.36V46.064Z" fill="white"/>
<path d="M10.6667 16C10.6667 13.0667 13.0667 10.6667 16 10.6667C18.9334 10.6667 21.3334 13.0667 21.3334 16C21.3334 18.9333 18.9334 21.3333 16 21.3333C13.0667 21.3333 10.6667 18.9333 10.6667 16ZM2.66669 24H18.6667L37.3334 10.6667L40.8267 14.6667L29.7067 22.6667H37.3334L58.1334 10.6667L61.3334 14.4L38.6667 32L37.3334 58.6667H32L30.6667 32L21.3334 29.3333H2.66669V24Z" fill="#A50000"/>
</svg>
