<svg width="207" height="60" viewBox="0 0 207 60" fill="none" xmlns="http://www.w3.org/2000/svg">
<path d="M193.931 50.2858V33.36H186.763V29.4265H206.283V33.36H199.115V50.2858H193.931Z" fill="white"/>
<path d="M177.831 50.2858V29.4265H183.015V50.2858H177.831Z" fill="white"/>
<path d="M161.234 38.8132H171.986V42.6871H161.234V38.8132ZM161.618 50.2858H156.434V29.4265H173.362V33.3004H161.618V50.2858Z" fill="white"/>
<path d="M132.349 50.2858V29.4265H142.045C144.05 29.4265 145.778 29.7344 147.229 30.3503C148.679 30.9463 149.799 31.8104 150.589 32.9428C151.378 34.0752 151.773 35.426 151.773 36.9955C151.773 38.545 151.378 39.886 150.589 41.0183C149.799 42.1507 148.679 43.0248 147.229 43.6406C145.778 44.2366 144.05 44.5346 142.045 44.5346H135.229L137.533 42.3593V50.2858H132.349ZM137.533 42.8957L135.229 40.6011H141.757C143.357 40.6011 144.551 40.2833 145.341 39.6476C146.13 39.0119 146.525 38.1278 146.525 36.9955C146.525 35.8432 146.13 34.9493 145.341 34.3135C144.551 33.6778 143.357 33.36 141.757 33.36H135.229L137.533 31.0655V42.8957Z" fill="white"/>
<path d="M100.826 50.2858V29.4265H105.114L114.65 44.1472H112.378L121.754 29.4265H126.01L126.074 50.2858H121.21L121.178 36.3697H122.074L114.586 48.0807H112.25L104.602 36.3697H105.69V50.2858H100.826Z" fill="white"/>
<path d="M84.5993 50.6434C81.4206 50.6434 78.9353 49.8189 77.1433 48.1701C75.3513 46.5212 74.4553 44.1671 74.4553 41.1077V29.4265H79.6393V40.9289C79.6393 42.9155 80.0766 44.3459 80.9513 45.22C81.8259 46.0941 83.0526 46.5311 84.6313 46.5311C86.2099 46.5311 87.4366 46.0941 88.3113 45.22C89.1859 44.3459 89.6233 42.9155 89.6233 40.9289V29.4265H94.7433V41.1077C94.7433 44.1671 93.8473 46.5212 92.0553 48.1701C90.2633 49.8189 87.7779 50.6434 84.5993 50.6434Z" fill="white"/>
<path d="M50.656 50.2858V29.4265H60.352C62.3573 29.4265 64.0853 29.7344 65.536 30.3503C66.9867 30.9463 68.1067 31.8104 68.896 32.9428C69.6853 34.0752 70.08 35.426 70.08 36.9955C70.08 38.545 69.6853 39.886 68.896 41.0183C68.1067 42.1507 66.9867 43.0248 65.536 43.6406C64.0853 44.2366 62.3573 44.5346 60.352 44.5346H53.536L55.84 42.3593V50.2858H50.656ZM55.84 42.8957L53.536 40.6011H60.064C61.664 40.6011 62.8587 40.2833 63.648 39.6476C64.4373 39.0119 64.832 38.1278 64.832 36.9955C64.832 35.8432 64.4373 34.9493 63.648 34.3135C62.8587 33.6778 61.664 33.36 60.064 33.36H53.536L55.84 31.0655V42.8957Z" fill="white"/>
<path d="M10.6667 14.8996C10.6667 12.168 13.0667 9.93311 16 9.93311C18.9334 9.93311 21.3334 12.168 21.3334 14.8996C21.3334 17.6312 18.9334 19.8661 16 19.8661C13.0667 19.8661 10.6667 17.6312 10.6667 14.8996ZM2.66669 22.3493H18.6667L37.3334 9.93311L40.8267 13.658L29.7067 21.1077H37.3334L58.1334 9.93311L61.3334 13.4097L38.6667 29.7991L37.3334 54.6316H32L30.6667 29.7991L21.3334 27.3158H2.66669V22.3493Z" fill="white"/>
</svg>
