<svg width="32" height="32" viewBox="0 0 32 32" fill="none" xmlns="http://www.w3.org/2000/svg">
<g clip-path="url(#clip0_13_685)">
<path d="M26.6667 8V24C26.6667 24.7072 26.3857 25.3855 25.8856 25.8856C25.3855 26.3857 24.7072 26.6667 24 26.6667H10.6667C9.95942 26.6667 9.28115 26.3857 8.78105 25.8856C8.28095 25.3855 8 24.7072 8 24V8C8 7.29276 8.28095 6.61448 8.78105 6.11438C9.28115 5.61429 9.95942 5.33334 10.6667 5.33334H24C24.7072 5.33334 25.3855 5.61429 25.8856 6.11438C26.3857 6.61448 26.6667 7.29276 26.6667 8Z" stroke="white" stroke-width="2" stroke-linecap="round" stroke-linejoin="round"/>
<path d="M13.3333 21.3333H21.3333" stroke="white" stroke-width="2" stroke-linecap="round" stroke-linejoin="round"/>
<path d="M14.6667 14.6667C14.6667 15.3739 14.9477 16.0522 15.4478 16.5523C15.9479 17.0524 16.6262 17.3333 17.3334 17.3333C18.0407 17.3333 18.7189 17.0524 19.219 16.5523C19.7191 16.0522 20.0001 15.3739 20.0001 14.6667C20.0001 13.9594 19.7191 13.2811 19.219 12.781C18.7189 12.281 18.0407 12 17.3334 12C16.6262 12 15.9479 12.281 15.4478 12.781C14.9477 13.2811 14.6667 13.9594 14.6667 14.6667Z" stroke="white" stroke-width="2" stroke-linecap="round" stroke-linejoin="round"/>
<path d="M5.33325 10.6667H9.33325" stroke="white" stroke-width="2" stroke-linecap="round" stroke-linejoin="round"/>
<path d="M5.33325 16H9.33325" stroke="white" stroke-width="2" stroke-linecap="round" stroke-linejoin="round"/>
<path d="M5.33325 21.3333H9.33325" stroke="white" stroke-width="2" stroke-linecap="round" stroke-linejoin="round"/>
</g>
<defs>
<clipPath id="clip0_13_685">
<rect width="32" height="32" fill="white"/>
</clipPath>
</defs>
</svg>
